<svg width="61" height="62" viewBox="0 0 61 62" fill="none" xmlns="http://www.w3.org/2000/svg">
<g clip-path="url(#clip0_13_431)">
<path d="M13.8716 50.6984C18.1728 50.6984 43.0563 50.6984 47.3525 50.6984C47.5183 46.8803 47.2448 40.5454 44.8973 37.5302L44.8124 37.4219L39.6826 34.8463C39.794 34.4706 39.8488 34.1264 39.8708 33.8735C39.8962 33.5698 39.8543 33.2846 39.7459 33.0262C38.8996 31.0011 37.1088 29.9356 36.1238 29.4815C36.424 28.8767 36.6175 28.2274 36.711 27.564C37.2686 27.4069 37.7171 26.965 37.8641 26.3755L38.4629 23.943C38.569 23.5139 38.5024 23.0688 38.2743 22.6903C38.1762 22.5272 38.0493 22.3898 37.9069 22.2723C39.5951 18.4377 36.7676 14.8219 36.6136 14.6316C33.5514 11.3208 29.683 11.9399 29.4785 11.9765C23.8958 13.1455 21.7414 17.424 22.9577 22.4419C22.5974 22.841 22.4461 23.3971 22.5797 23.9424L23.1814 26.3776C23.3273 26.9628 23.7722 27.4031 24.3259 27.5621C24.4967 28.7769 25.0109 29.8758 25.7662 30.7613V32.6897C17.7551 36.7923 22.8311 34.1749 16.4111 37.4228C16.3984 37.4834 13.3986 40.6715 13.8445 50.1211L13.8716 50.6984ZM46.1891 49.4863H40.6788V47.1716L44.3233 38.8285C46.149 41.8588 46.2168 47.6448 46.1891 49.4863ZM38.6686 33.7705C38.456 36.2132 37.1164 35.4748 36.2894 37.3568C35.639 36.6416 35.4434 35.784 35.6182 34.866C35.934 33.1804 34.9052 32.6797 35.1595 30.9086L35.198 30.868V30.8624C35.2198 30.838 35.4227 30.5963 35.4815 30.52C37.6616 31.4704 38.7111 33.2379 38.6686 33.7705ZM26.9732 31.8505C27.9853 32.5525 29.207 32.9673 30.521 32.9673C31.7585 32.9673 32.9339 32.6072 33.9416 31.9441C34.0813 33.3365 34.6255 33.6153 34.4324 34.6399C34.3962 34.8301 34.3766 35.0175 34.365 35.2019L30.6123 39.4313L25.8152 34.023L26.9732 33.4183V31.8505H26.9732ZM25.4645 26.6744V24.3295C25.4645 23.466 25.4645 20.0401 25.4645 20.2093C26.0485 19.1291 26.8447 18.3458 27.8342 17.8762C30.4843 19.3756 33.5347 21.6134 35.5805 23.8655C35.5785 26.7336 35.5886 26.7414 35.5695 26.977L35.5682 26.992C35.4086 29.5964 33.2671 31.7552 30.521 31.7552C27.8513 31.7552 25.6348 29.6591 25.4745 26.9662C25.4662 26.8697 25.4645 26.773 25.4645 26.6744ZM24.7172 34.6079L30.6123 41.2536L34.5702 36.793C34.6606 37.0534 34.7875 37.2995 34.9326 37.5371L30.6124 42.9398L24.17 34.8826L24.7172 34.6079ZM36.7874 25.699V23.8267C36.8405 23.7659 37.2904 23.25 37.2374 23.3108C37.2622 24.2588 37.3646 23.1399 36.7874 25.699ZM29.7018 13.1677C29.9413 13.1826 33.1582 12.6783 35.7007 15.4232C35.8008 15.5489 37.8704 18.2154 37.039 21.1325C36.7544 19.8345 36.2583 18.1711 35.4744 17.3772L34.6175 18.2307C35.3915 19.0147 35.9 21.4021 36.0936 22.6398C32.5431 18.9245 27.963 16.573 27.9002 16.5333C27.6705 16.6761 25.7323 17.0446 24.3247 19.7805L24.2575 19.9113V21.9206C24.1971 21.9213 24.0196 21.9231 24.0801 21.9225C23.1857 17.6046 24.8985 14.1745 29.7018 13.1677ZM23.9529 23.1694L24.2575 24.4035V25.7005L23.7513 23.6515C23.677 23.3461 23.9032 23.2303 23.9529 23.1694ZM23.0655 35.4371L30.6123 44.8758L35.7184 38.4895C36.2739 38.9866 36.5409 39.0571 37.7186 39.6627L37.3214 38.3153C37.2206 37.9732 37.6196 37.4246 37.8606 37.1725C38.3986 36.8806 38.847 36.4644 39.1825 35.9506L43.3485 38.0425L39.4719 46.9177V49.4863H21.7522V46.9174L17.8738 38.0434L23.0655 35.4371ZM16.9002 38.8311L20.5453 47.1719V49.4863H15.035C15.0073 47.6454 15.0756 41.8623 16.9002 38.8311Z" fill="#FF6B09"/>
</g>
<path d="M59.8235 9.73529V1.5H1V61.5H59.8235V53.2647" stroke="#FF6B09" stroke-width="2"/>
<defs>
<clipPath id="clip0_13_431">
<rect width="33.1915" height="40" fill="white" transform="translate(14 11)"/>
</clipPath>
</defs>
</svg>
